<?xml version="1.0" encoding="utf-8"?>
<svg version="1.0" width="400.000000pt" height="300.000000pt" viewBox="0 0 400.000000 300.000000" preserveAspectRatio="xMidYMid meet" xmlns="http://www.w3.org/2000/svg">
  <g transform="translate(0.000000,300.000000) scale(0.100000,-0.100000)" fill="#000000" stroke="none">
    <path d="M1893 2457 c-3 -5 -18 -7 -34 -5 -16 3 -29 0 -29 -5 0 -5 -7 -7 -15 -3 -8 3 -15 1 -15 -4 0 -6 -9 -10 -19 -10 -23 0 -75 -75 -141 -203 l-45 -87 -52 0 c-57 0 -58 1 -42 49 9 25 17 31 38 31 39 0 64 31 64 79 0 49 -7 60 -50 78 -27 11 -42 12 -69 3 -40 -14 -54 -35 -54 -84 0 -33 -7 -41 -92 -110 -57 -45 -107 -76 -128 -81 -73 -15 -180 -75 -250 -142 -91 -85 -122 -147 -128 -254 -3 -44 -7 -79 -11 -79 -3 0 -73 52 -155 115 -82 63 -152 115 -156 115 -4 0 -13 -7 -20 -15 -11 -13 -9 -20 9 -39 20 -22 21 -24 5 -61 l-15 -38 40 -41 c25 -26 59 -82 91 -151 l51 -110 29 35 29 35 165 -164 164 -164 -5 -54 c-7 -62 5 -92 47 -117 16 -9 122 -50 237 -92 214 -78 270 -107 360 -188 49 -44 73 -52 73 -23 1 43 13 41 246 -36 436 -145 487 -149 598 -47 l46 42 35 -31 c101 -88 222 26 157 149 -11 19 -17 41 -14 49 3 10 0 12 -12 8 -21 -8 -21 21 -2 68 17 39 42 55 86 55 42 0 67 -15 85 -50 19 -36 19 -46 1 -30 -13 10 -13 7 -3 -19 9 -24 8 -34 -1 -43 -10 -10 -15 -8 -28 10 -8 12 -20 22 -26 22 -6 0 -4 -8 5 -18 10 -10 17 -24 17 -30 0 -17 -50 -15 -84 3 -35 19 -43 14 -16 -10 10 -9 40 -20 65 -23 53 -6 78 11 96 65 10 30 8 41 -13 84 -26 52 -25 58 6 34 28 -21 70 -19 91 5 17 19 17 58 1 100 -5 11 27 47 102 117 60 56 115 116 122 133 36 86 -99 615 -224 875 -64 135 -100 178 -170 204 -45 17 -263 57 -321 60 -21 1 -92 7 -160 15 -227 25 -552 38 -562 23z m627 -93 c0 -9 -5 -14 -12 -12 -18 6 -21 28 -4 28 9 0 16 -7 16 -16z m-960 -23 c23 -44 -1 -101 -41 -101 -12 0 -33 -22 -55 -55 -20 -30 -42 -55 -48 -55 -6 -1 -24 -7 -41 -14 -27 -12 -18 -13 75 -9 58 3 135 1 172 -4 65 -9 69 -9 222 46 122 44 156 60 156 74 0 10 11 29 25 42 48 49 125 20 125 -46 0 -62 -40 -90 -97 -68 -25 9 -40 5 -125 -37 -54 -27 -98 -51 -98 -54 0 -4 25 -24 56 -45 67 -47 129 -130 151 -204 25 -88 14 -221 -25 -306 -60 -126 -196 -224 -377 -271 -106 -28 -314 -25 -420 5 -189 53 -311 164 -340 309 -6 31 -5 33 14 27 12 -3 45 0 74 9 101 29 163 131 137 226 -14 50 -42 84 -90 108 l-41 20 44 36 c37 30 114 70 237 123 14 6 63 44 110 84 79 68 85 75 82 106 -5 47 20 73 69 73 28 0 41 -5 49 -19z m399 0 c12 -8 12 -12 -2 -26 -15 -14 -19 -15 -31 -2 -11 11 -12 17 -3 26 13 13 18 13 36 2z m186 -31 c3 -6 -1 -7 -9 -4 -18 7 -21 14 -7 14 6 0 13 -4 16 -10z m-152 -55 c-3 -9 -8 -14 -10 -11 -3 3 -2 9 2 15 9 16 15 13 8 -4z m204 -67 c-2 -13 -4 -3 -4 22 0 25 2 35 4 23 2 -13 2 -33 0 -45z m507 7 c-11 -7 -20 -9 -22 -4 -2 5 -10 9 -18 9 -8 0 -14 5 -14 10 0 6 7 10 15 10 8 0 15 8 15 17 0 14 4 13 21 -6 20 -22 20 -23 3 -36z m-948 -10 c-6 -14 -13 -20 -14 -15 -2 6 -8 8 -13 4 -12 -7 -11 3 3 25 18 29 39 16 24 -14z m171 19 c-3 -3 -12 -4 -19 -1 -8 3 -5 6 6 6 11 1 17 -2 13 -5z m626 -11 c-7 -2 -21 -2 -30 0 -10 3 -4 5 12 5 17 0 24 -2 18 -5z m-257 -28 c4 -15 13 -25 24 -25 29 0 33 -17 6 -24 -14 -3 -28 -15 -31 -26 -8 -25 -25 -26 -25 -1 0 12 -9 21 -25 25 -14 4 -25 11 -25 16 0 6 11 10 25 10 20 0 25 5 25 25 0 14 4 25 10 25 5 0 12 -11 16 -25z m274 -210 c0 -8 -7 -15 -15 -15 -8 0 -15 7 -15 15 0 8 7 15 15 15 8 0 15 -7 15 -15z m-1588 -54 c-2 -8 -4 -45 -4 -82 -1 -54 2 -73 17 -89 10 -11 24 -20 31 -20 22 0 44 42 44 85 0 29 3 36 10 25 29 -45 -9 -158 -68 -197 -44 -29 -104 -38 -139 -21 -27 13 -28 16 -26 88 2 123 57 234 111 228 17 -2 26 -8 24 -17z m58 -61 c0 -36 -20 -67 -33 -53 -4 3 -7 27 -7 53 0 26 3 50 7 53 13 14 33 -17 33 -53z m1803 14 c-4 -11 -8 -12 -20 -3 -11 10 -11 14 -1 20 17 10 28 2 21 -17z m-553 6 c0 -5 -4 -10 -10 -10 -5 0 -10 5 -10 10 0 6 5 10 10 10 6 0 10 -4 10 -10z m873 -32 c-2 -5 -9 -8 -14 -8 -6 0 -8 4 -4 9 3 5 0 13 -6 17 -8 4 -7 9 2 15 14 8 31 -18 22 -33z m-936 -129 c-9 -15 -12 -15 -28 -1 -16 14 -17 17 -2 27 23 17 45 -3 30 -26z m353 -60 c0 -8 4 -8 13 -1 17 14 104 -16 152 -53 33 -25 115 -136 115 -156 0 -5 19 -2 41 6 55 20 63 19 74 -7 12 -27 62 -36 96 -17 20 10 26 8 46 -15 47 -55 53 -148 13 -225 -50 -99 -200 -171 -354 -171 -74 0 -176 33 -231 75 -25 19 -48 35 -51 35 -3 0 3 -14 13 -31 23 -39 91 -84 152 -100 l49 -12 11 -68 c14 -88 14 -89 -8 -89 -46 0 -108 -88 -131 -188 -10 -41 -18 -56 -41 -67 -37 -19 -45 -19 -79 5 -41 30 -71 101 -79 194 l-7 81 -12 -66 c-14 -79 -3 -159 29 -203 l22 -29 -38 7 c-20 4 -66 16 -101 27 -76 23 -71 -5 -49 283 31 409 76 597 171 713 40 49 51 53 57 21 4 -20 4 -20 6 4 1 30 10 38 55 49 47 11 66 10 66 -2z m-1727 -123 c38 -118 146 -235 267 -288 174 -77 507 -78 695 -3 45 19 61 21 67 12 16 -24 39 -115 74 -287 l36 -175 -29 -23 c-57 -46 -77 -53 -120 -38 -22 8 -37 19 -35 27 2 8 28 68 58 133 30 65 53 120 51 122 -1 2 -37 -54 -80 -124 -42 -70 -81 -133 -86 -140 -6 -10 -21 -5 -67 22 -32 20 -65 36 -73 36 -7 0 -11 6 -8 13 2 7 10 38 16 69 l12 56 41 -10 c22 -5 42 -7 43 -6 6 8 45 192 41 195 -2 2 -17 -31 -34 -74 -25 -68 -33 -78 -56 -81 -18 -2 -26 1 -26 12 0 9 -6 16 -12 16 -12 0 -98 -45 -185 -96 l-31 -18 -104 95 c-56 53 -206 192 -333 308 -126 117 -231 216 -233 221 -2 5 12 31 30 59 29 44 35 48 49 35 8 -7 23 -38 32 -68z m2225 -48 c4 -20 -36 -34 -52 -18 -8 8 -6 15 9 26 23 17 39 14 43 -8z m24 -470 c11 -38 10 -42 -11 -59 -30 -24 -34 -24 -70 7 -37 31 -38 39 -9 55 18 10 24 8 36 -7 14 -18 14 -18 9 5 -6 26 9 55 24 45 5 -2 14 -23 21 -46z m-313 -213 c30 -15 61 -69 61 -106 0 -21 -1 -22 -20 -4 -24 22 -26 13 -4 -21 13 -19 14 -28 5 -37 -8 -8 -14 -8 -19 -2 -4 6 -16 17 -27 25 -19 15 -19 14 -2 -10 24 -34 22 -40 -15 -40 -24 0 -41 10 -77 47 -24 26 -42 40 -39 31 6 -14 -28 -58 -44 -58 -16 0 38 125 67 155 36 39 68 44 114 20z m-783 -123 c-2 -1 -16 2 -31 8 l-28 11 24 25 24 26 7 -34 c3 -18 5 -34 4 -36z" style="fill: rgb(55, 101, 175);"/>
    <path d="M1560 1935 c-56 -18 -122 -72 -144 -119 -24 -50 -21 -126 7 -167 32 -49 97 -79 172 -79 88 0 134 16 181 64 68 68 80 163 31 238 -43 64 -156 93 -247 63z m170 -27 c54 -28 80 -73 80 -141 0 -110 -80 -177 -212 -177 -93 0 -134 20 -166 81 -23 44 -26 109 -5 130 5 5 7 -6 5 -26 -5 -45 20 -85 53 -85 40 0 57 39 63 140 5 100 3 97 87 99 35 1 65 -6 95 -21z m-239 -131 c-5 -5 -17 -7 -25 -4 -24 10 -20 66 7 95 l22 24 3 -53 c2 -28 -1 -56 -7 -62z" style="fill: rgb(55, 101, 175);"/>
    <path d="M1276 1574 c-29 -16 -93 -15 -130 1 -18 8 -19 5 -12 -45 9 -67 27 -103 61 -118 43 -20 74 -14 106 18 28 27 30 34 27 91 -2 35 -7 64 -13 65 -5 2 -23 -4 -39 -12z m43 -45 c1 -4 -14 -10 -33 -13 -34 -7 -86 -54 -86 -79 0 -29 -40 33 -46 71 l-7 43 39 -6 c23 -4 56 -1 79 7 40 13 51 9 54 -23z m-9 -54 c0 -25 -38 -55 -70 -55 -27 0 -30 2 -20 19 22 42 90 69 90 36z" style="fill: rgb(55, 101, 175);"/>
    <path d="M2764 1487 c-8 -21 20 -87 36 -87 17 0 11 57 -9 81 -18 22 -20 23 -27 6z" style="fill: rgb(55, 101, 175);"/>
    <path d="M2674 1467 c-9 -26 13 -97 31 -97 22 0 19 63 -4 91 -18 22 -20 23 -27 6z" style="fill: rgb(55, 101, 175);"/>
  </g>
</svg>