<?xml version="1.0" encoding="utf-8"?>
<svg version="1.0" width="225.000000pt" height="225.000000pt" viewBox="0 0 225.000000 225.000000" preserveAspectRatio="xMidYMid meet" xmlns="http://www.w3.org/2000/svg">
  <path d="M 0 112.5 L 0 225 L 112.5 225 L 225 225 L 225 224.663 L 0.337 225.674 L 0 0 L 0 112.5 Z M 100 82.5 L 100 100 L 82.5 100 L 65 100 L 65 82.5 L 65 65 L 82.5 65 L 100 65 L 100 82.5 Z M 160 82.5 L 160 100 L 142.5 100 L 125 100 L 125 82.5 L 125 65 L 142.5 65 L 160 65 L 160 82.5 Z M 89.6 118.5 C 92.3 119.3 96.4 121.5 98.7 123.5 C 113.6 136.3 108.4 160.9 89.6 166.5 C 83.2 168.4 80.7 168.3 74 166 L 68.5 164.1 L 59.5 173.1 C 54.5 178 50 182 49.5 182 C 49 182 47.1 180.6 45.3 178.8 L 42 175.6 L 51.6 165.9 L 61.2 156.3 L 59.7 153.4 C 53.2 140.8 60.9 122.9 74.6 118.6 C 80.9 116.7 83.5 116.7 89.6 118.5 Z M 160 142.5 L 160 160 L 142.5 160 L 125 160 L 125 142.5 L 125 125 L 142.5 125 L 160 125 L 160 142.5 Z" style="fill: rgb(55, 101, 175);" fill="#000000" stroke="none"/>
  <path d="M 76.1 129.7 C 71.3 132.2 68.8 136 68.3 141.7 C 67.3 152.7 78.4 160.2 88.6 155.4 C 98.3 150.8 99.6 137.1 90.9 130.7 C 87.1 127.9 80.3 127.5 76.1 129.7 Z" style="fill: rgb(255, 255, 255);" stroke="none"/>
</svg>